HIERARCHY
ROOT Pelvis
{
	OFFSET 0.000000 0.000000 0.000000
	CHANNELS 6 Xposition Yposition Zposition Xrotation Yrotation Zrotation
	JOINT LeftUpLeg_virtual
	{
		OFFSET 0.000000 0.000000 0.000000
		CHANNELS 3 Xrotation Yrotation Zrotation
		JOINT LeftUpLeg
		{
			OFFSET 18.735201 -5.666702 -4.541200
			CHANNELS 3 Xrotation Yrotation Zrotation
			JOINT LeftLeg
			{
				OFFSET -0.021200 -31.938179 0.493100
				CHANNELS 3 Xrotation Yrotation Zrotation
				JOINT LeftFoot
				{
					OFFSET 0.021200 -31.938179 -4.336299
					CHANNELS 3 Xrotation Yrotation Zrotation
					JOINT LeftToeBase
					{
						OFFSET 0.943001 -26.722000 15.023500
						CHANNELS 3 Xrotation Yrotation Zrotation
						End Site
						{
							OFFSET 0 0 0
						}
					}
				}
			}
		}
	}
	JOINT RightUpLeg_virtual
	{
		OFFSET 0.000000 0.000000 0.000000
		CHANNELS 3 Xrotation Yrotation Zrotation
		JOINT RightUpLeg
		{
			OFFSET -18.735201 -5.666702 -4.541200
			CHANNELS 3 Xrotation Yrotation Zrotation
			JOINT RightLeg
			{
				OFFSET 0.018946 -31.938133 0.493100
				CHANNELS 3 Xrotation Yrotation Zrotation
				JOINT RightFoot
				{
					OFFSET -0.018946 -31.938126 -4.336299
					CHANNELS 3 Xrotation Yrotation Zrotation
					JOINT RightToeBase
					{
						OFFSET -0.943001 -26.722004 15.023500
						CHANNELS 3 Xrotation Yrotation Zrotation
						End Site
						{
							OFFSET 0 0 0
						}
					}
				}
			}
		}
	}
	JOINT Hips_virtual
	{
		OFFSET 0.000000 0.000000 0.000000
		CHANNELS 3 Xrotation Yrotation Zrotation
		JOINT Hips
		{
			OFFSET -0.000000 -0.000000 -0.000000
			CHANNELS 3 Xrotation Yrotation Zrotation
			JOINT Spine
			{
				OFFSET 0.000000 10.199997 -0.299500
				CHANNELS 3 Xrotation Yrotation Zrotation
				JOINT Spine1
				{
					OFFSET 0.000000 11.900002 -1.516600
					CHANNELS 3 Xrotation Yrotation Zrotation
					JOINT Spine2
					{
						OFFSET 0.000000 13.600006 -2.842500
						CHANNELS 3 Xrotation Yrotation Zrotation
						JOINT Neck_virtual
						{
							OFFSET 0.000000 0.000000 0.000000
							CHANNELS 3 Xrotation Yrotation Zrotation
							JOINT Neck
							{
								OFFSET 0.000000 9.624100 -2.890100
								CHANNELS 3 Xrotation Yrotation Zrotation
								JOINT Head
								{
									OFFSET 0.000000 14.068802 -1.351900
									CHANNELS 3 Xrotation Yrotation Zrotation
									End Site
									{
										OFFSET 0 0 0
									}
								}
							}
						}
						JOINT LeftShoulder_virtual
						{
							OFFSET 0.000000 0.000000 0.000000
							CHANNELS 3 Xrotation Yrotation Zrotation
							JOINT LeftShoulder
							{
								OFFSET 15.263000 10.923401 -0.547700
								CHANNELS 3 Xrotation Yrotation Zrotation
								JOINT LeftArm
								{
									OFFSET 25.438599 -2.830597 -13.032500
									CHANNELS 3 Xrotation Yrotation Zrotation
									JOINT LeftForeArm
									{
										OFFSET 29.960503 0.000000 0.000000
										CHANNELS 3 Xrotation Yrotation Zrotation
										JOINT LeftHand
										{
											OFFSET 27.849251 0.000000 0.000000
											CHANNELS 3 Xrotation Yrotation Zrotation
											End Site
											{
												OFFSET 0 0 0
											}
										}
									}
								}
							}
						}
						JOINT RightShoulder_virtual
						{
							OFFSET 0.000000 0.000000 0.000000
							CHANNELS 3 Xrotation Yrotation Zrotation
							JOINT RightShoulder
							{
								OFFSET -15.263000 10.923401 -0.547700
								CHANNELS 3 Xrotation Yrotation Zrotation
								JOINT RightArm
								{
									OFFSET -25.438599 -2.830597 -13.032500
									CHANNELS 3 Xrotation Yrotation Zrotation
									JOINT RightForeArm
									{
										OFFSET -29.960503 0.000000 0.000000
										CHANNELS 3 Xrotation Yrotation Zrotation
										JOINT RightHand
										{
											OFFSET -27.849251 0.000000 0.000000
											CHANNELS 3 Xrotation Yrotation Zrotation
											End Site
											{
												OFFSET 0 0 0
											}
										}
									}
								}
							}
						}
					}
				}
			}
		}
	}
}
MOTION
Frames: 5
Frame Time: 0.03333333
-0.035493 86.149033 -0.682301 0.000000 0.000000 0.000000 119.536070 -87.125941 119.078447 -31.506317 30.946320 42.839360 35.063264 -11.573620 1.058883 -9.711260 8.257453 -23.106673 0.000000 0.000000 0.000000 119.536070 -87.125941 119.078447 -38.051831 -8.665539 -25.598046 22.011509 11.153710 -3.940124 5.914236 13.611749 23.364335 0.000000 0.000000 0.000000 119.536070 -87.125941 119.078447 0.000000 0.000000 0.000000 5.385781 -2.178367 -8.023786 2.771438 -0.553950 -1.077813 0.000000 0.000000 0.000000 2.777688 -0.510268 -1.087487 -2.410724 1.279837 0.846269 0.000000 0.000000 0.000000 2.777688 -0.510268 -1.087487 5.516883 -2.188420 12.208354 -41.899358 5.599302 2.227378 0.045079 -12.980545 -0.290003 0.000000 0.000000 0.000000 2.777688 -0.510268 -1.087487 -2.478559 1.878755 -16.638414 -51.925892 54.163779 47.616623 -178.637451 49.479670 -179.753176 0.000000 0.000000 0.000000 
-0.034848 86.152214 -0.682068 0.000000 0.000000 0.000000 119.555440 -87.131603 119.101765 -31.490734 30.952816 42.823199 35.048009 -11.568498 1.068260 -9.703037 8.257578 -23.111805 0.000000 0.000000 0.000000 119.555440 -87.131603 119.101765 -38.041504 -8.663206 -25.606009 22.001405 11.152370 -3.929590 5.919539 13.611575 23.360295 0.000000 0.000000 0.000000 119.555440 -87.131603 119.101765 0.000000 0.000000 0.000000 5.385740 -2.178365 -8.023483 2.771401 -0.556390 -1.077454 0.000000 0.000000 0.000000 2.777601 -0.514367 -1.086865 -2.408334 1.278340 0.846226 0.000000 0.000000 0.000000 2.777601 -0.514367 -1.086865 5.518629 -2.184562 12.217437 -41.910205 5.611432 2.220992 0.057266 -13.133529 -0.286647 0.000000 0.000000 0.000000 2.777601 -0.514367 -1.086865 -2.479251 1.875577 -16.638718 -51.759959 54.134474 47.334225 179.213140 49.517277 -178.173845 0.000000 0.000000 0.000000 
-0.034115 86.155876 -0.681208 0.000000 0.000000 0.000000 119.540427 -87.138433 119.090878 -31.476158 30.959089 42.805806 35.032833 -11.565529 1.077948 -9.694614 8.257476 -23.115138 0.000000 0.000000 0.000000 119.540427 -87.138433 119.090878 -38.027505 -8.660795 -25.615644 21.988356 11.148260 -3.918833 5.924854 13.611245 23.357811 0.000000 0.000000 0.000000 119.540427 -87.138433 119.090878 0.000000 0.000000 0.000000 5.385739 -2.178501 -8.023264 2.771262 -0.563897 -1.076319 0.000000 0.000000 0.000000 2.777361 -0.526628 -1.085017 -2.405943 1.274098 0.847145 0.000000 0.000000 0.000000 2.777361 -0.526628 -1.085017 5.523682 -2.173155 12.243788 -41.919279 5.652337 2.202113 0.064107 -13.136955 -0.284904 0.000000 0.000000 0.000000 2.777361 -0.526628 -1.085017 -2.480389 1.866594 -16.643231 -51.815803 54.140290 47.365231 179.227415 49.509856 -178.185442 0.000000 0.000000 0.000000 
-0.033333 86.159912 -0.679552 0.000000 0.000000 0.000000 119.472002 -87.147476 119.027166 -31.463427 30.965742 42.787891 35.017547 -11.565702 1.087731 -9.685601 8.256783 -23.116435 0.000000 0.000000 0.000000 119.472002 -87.147476 119.027166 -38.010839 -8.657634 -25.627093 21.974556 11.141071 -3.908235 5.929360 13.610668 23.356766 0.000000 0.000000 0.000000 119.472002 -87.147476 119.027166 0.000000 0.000000 0.000000 5.389493 -2.177895 -8.018254 2.770428 -0.576445 -1.075723 0.000000 0.000000 0.000000 2.777965 -0.546934 -1.081946 -2.403456 1.267420 0.848480 0.000000 0.000000 0.000000 2.777965 -0.546934 -1.081946 5.535949 -2.153913 12.285028 -41.932051 5.710412 2.170943 0.070654 -13.142516 -0.283217 0.000000 0.000000 0.000000 2.777965 -0.546934 -1.081946 -2.482175 1.852233 -16.650707 -51.874843 54.138729 47.397223 179.246840 49.500809 -178.200387 0.000000 0.000000 0.000000 
-0.032491 86.163795 -0.677071 0.000000 0.000000 0.000000 119.348868 -87.158480 118.909263 -31.453369 30.971964 42.769975 35.004354 -11.569205 1.097805 -9.677108 8.255746 -23.115737 0.000000 0.000000 0.000000 119.348868 -87.158480 118.909263 -37.991100 -8.649909 -25.639372 21.962772 11.127392 -3.898540 5.931231 13.609659 23.358176 0.000000 0.000000 0.000000 119.348868 -87.158480 118.909263 0.000000 0.000000 0.000000 5.412322 -2.176614 -8.002930 2.804000 -0.568237 -1.061619 0.000000 0.000000 0.000000 2.813112 -0.548238 -1.065947 -2.400997 1.258755 0.850132 0.000000 0.000000 0.000000 2.813112 -0.548238 -1.065947 5.552300 -2.127880 12.340271 -42.041109 5.758729 2.080979 0.076807 -13.147930 -0.281641 0.000000 0.000000 0.000000 2.813112 -0.548238 -1.065947 -2.484599 1.832601 -16.660976 -52.022969 54.080041 47.449013 179.274434 49.456976 -178.221574 0.000000 0.000000 0.000000 
